<?xml version="1.0" encoding="utf-8"?>
<!-- Generator: Adobe Illustrator 24.2.3, SVG Export Plug-In . SVG Version: 6.00 Build 0)  -->
<svg version="1.1" id="Layer_1" xmlns="http://www.w3.org/2000/svg" xmlns:xlink="http://www.w3.org/1999/xlink" x="0px" y="0px"
	 viewBox="0 0 361 153" style="enable-background:new 0 0 361 153;" xml:space="preserve">
<style type="text/css">
	.st0{fill:#FFC915;}
</style>
<desc>Created with Sketch.</desc>
<g id="页面-1">
	<g id="pc_cos" transform="translate(-1519.000000, -312.000000)">
		<g id="_x30_1-kv-中文备份" transform="translate(0.000000, 44.000000)">
			<g id="budsairneo" transform="translate(681.000000, 265.000000)">
				<g id="p_01_AIR">
					<path class="st0" d="M1142.1,5.4c13.5,0,26.1,5.2,35.6,14.7c9.5,9.5,14.7,22.1,14.7,35.6c0,17.5-10.6,34.2-27,42.5l-1.9,1
						l1.1,1.8l30.7,53h-32.9l-28.2-49.1l-0.6-1h-1.2h-16.6h-2v2V154H1083V5.4H1142.1 M1113.9,77.3h2h26.2c10.9,0,19.4-9.5,19.4-21.6
						s-8.5-21.6-19.4-21.6h-26.2h-2v2v39.2V77.3 M1042.8,5.4V154H1012V5.4H1042.8 M933.6,5.4L984.1,154h-33.9l-7.2-22.6l-0.4-1.4
						h-1.5h-56.7H883l-0.4,1.4l-7.2,22.6h-33.9L892,5.4H933.6 M892.2,101.3h2.7h35.8h2.7l-0.8-2.6l-17.9-56l-1.9-6l-1.9,6l-17.9,56
						L892.2,101.3 M1142.1,3.4h-61V156h34.9v-50.1h16.6l28.8,50.1h37.5l-32.5-56c16.8-8.5,28.1-25.5,28.1-44.3
						C1194.4,26.7,1171,3.4,1142.1,3.4L1142.1,3.4z M1115.9,75.3V36.1h26.2c9.6,0,17.4,8.5,17.4,19.6s-7.8,19.6-17.4,19.6H1115.9
						L1115.9,75.3z M1044.8,3.4H1010V156h34.9V3.4L1044.8,3.4z M935,3.4h-44.5L838.7,156h38.1l7.6-24h56.7l7.6,24h38.2L935,3.4
						L935,3.4z M894.9,99.3l17.9-56l17.9,56H894.9L894.9,99.3z"/>
				</g>
			</g>
		</g>
	</g>
</g>
</svg>
