<?xml version="1.0" encoding="utf-8"?>
<!-- Generator: Adobe Illustrator 24.2.3, SVG Export Plug-In . SVG Version: 6.00 Build 0)  -->
<svg version="1.1" id="Layer_1" xmlns="http://www.w3.org/2000/svg" xmlns:xlink="http://www.w3.org/1999/xlink" x="0px" y="0px"
	 viewBox="0 0 562 160" style="enable-background:new 0 0 562 160;" xml:space="preserve">
<style type="text/css">
	.st0{fill:#FFC915;}
</style>
<desc>Created with Sketch.</desc>
<g id="页面-1">
	<g id="pc_cos" transform="translate(-681.000000, -309.000000)">
		<g id="_x30_1-kv-中文备份" transform="translate(0.000000, 44.000000)">
			<g id="budsairneo" transform="translate(681.000000, 265.000000)">
				<g id="p_01_BUDS">
					<path class="st0" d="M501.1,2.3c12.1,0,22.9,2.9,32.1,8.5C541.9,16.2,549,24,554.3,34l-26,15.2c-6.2-11.6-14.6-16.9-27.2-16.9
						c-12.7,0-18.4,6.8-18.4,13.6c0,8.2,4.3,13.4,28.9,20.9c22.3,6.7,47.6,14.4,47.6,45.4c0,27.3-21.5,44.9-54.7,44.9
						c-28.6,0-49.3-12.4-58.5-34.8l26.7-15.5c6.6,13.7,17.4,20.3,33,20.3c19.8,0,22.7-9,22.7-14.4c0-11-10.1-15-33.1-21.3
						c-13.7-3.8-23.3-8.3-30.2-14.2c-8.9-7.6-13.3-17.5-13.3-30.3c0-13.2,5.2-24.5,15-32.7C475.9,6.5,488.1,2.3,501.1,2.3
						 M352.9,5.4c19.8,0,38,7.6,51.4,21.4C417.7,40.5,425,59.3,425,79.7s-7.4,39.2-20.7,52.9c-13.4,13.8-31.6,21.4-51.4,21.4h-59
						V5.4H352.9 M324.7,124.4h2h26.2c25.4,0,42.5-18,42.5-44.7S378.3,35,352.9,35h-26.2h-2v2v85.5V124.4 M254.8,5.4v101.3
						c0,15.1-5.6,27.9-16.1,36.9c-10.1,8.7-24.6,13.4-40.7,13.4s-30.6-4.8-40.7-13.4c-10.6-9-16.1-21.8-16.1-36.9V5.4h30.9v98.3
						c0,10.7,4.5,23.4,26,23.4s26-12.7,26-23.4V5.4H254.8 M60.2,5.4c26.8,0,46.2,17.5,46.2,41.6c0,11.4-4.4,21.2-12.6,28.4l-2,1.8
						l2.3,1.4c11.5,7.3,17.8,18.9,17.8,32.8c0,24.7-19.9,42.7-47.3,42.7H2.4V5.4H60.2 M33.3,65.1h2h24.9c8.9,0,15.3-6.5,15.3-15.5
						c0-9.1-6.3-15.5-15.3-15.5H35.3h-2v2v27V65.1 M33.3,125.3h2h29.2c9.6,0,16.4-6.8,16.4-16.6s-6.7-16.6-16.4-16.6H35.3h-2v2v29.2
						V125.3 M501.1,0.3c-26.4,0-51.2,17-51.2,46.4c0,29.2,22.2,40.1,44.9,46.4c22.9,6.3,31.6,10,31.6,19.4c0,5.9-4.1,12.4-20.7,12.4
						c-17.2,0-26.6-8.5-32-21.1l-30.1,17.4c8.5,22.5,29,37.7,61,37.7c33.1,0,56.7-17.4,56.7-46.9c0-32.3-25.9-40.3-49.1-47.3
						c-23.8-7.2-27.5-12-27.5-19c0-6.1,5.4-11.6,16.4-11.6c14,0,21.1,6.8,26.4,17.7l29.4-17.2C545.8,12.3,526.2,0.3,501.1,0.3
						L501.1,0.3z M352.9,3.4h-61V156h61c42.1,0,74.1-33.1,74.1-76.3S395,3.4,352.9,3.4L352.9,3.4z M326.7,122.4V37h26.2
						c24,0,40.5,16.6,40.5,42.7s-16.6,42.7-40.5,42.7H326.7L326.7,122.4z M256.8,3.4h-34.9v100.3c0,11.6-5.4,21.4-24,21.4
						s-24-9.8-24-21.4V3.4h-34.9v103.3c0,32.7,25.3,52.3,58.9,52.3s58.9-19.6,58.9-52.3V3.4L256.8,3.4z M60.2,3.4H0.4V156h64.1
						c27.3,0,49.3-17.7,49.3-44.7c0-15.5-7.4-27.3-18.7-34.4c8.3-7.2,13.3-17.2,13.3-29.9C108.4,20.6,86.8,3.4,60.2,3.4L60.2,3.4z
						 M35.3,63.1v-27h24.9c8.1,0,13.3,5.7,13.3,13.5S68,63.1,60.2,63.1H35.3L35.3,63.1z M35.3,123.3V94.1h29.2
						c8.7,0,14.4,6.1,14.4,14.6s-5.7,14.6-14.4,14.6H35.3L35.3,123.3z"/>
				</g>
			</g>
		</g>
	</g>
</g>
</svg>
