<?xml version="1.0" encoding="UTF-8"?>
<svg width="50px" height="50px" viewBox="0 0 50 50" version="1.1" xmlns="http://www.w3.org/2000/svg" xmlns:xlink="http://www.w3.org/1999/xlink">
    <!-- Generator: Sketch 62 (91390) - https://sketch.com -->
    <title>p_02_icon_charge</title>
    <desc>Created with Sketch.</desc>
    <g id="p_02_icon_charge" stroke="none" stroke-width="1" fill="none" fill-rule="evenodd">
        <path d="M32,11 L18,11 C15.2385763,11 13,13.2385763 13,16 L13,34 C13,36.7614237 15.2385763,39 18,39 L32,39 C34.7614237,39 37,36.7614237 37,34 L37,16 C37,13.2385763 34.7614237,11 32,11 Z M18,13 L32,13 C33.6568542,13 35,14.3431458 35,16 L35,34 C35,35.6568542 33.6568542,37 32,37 L18,37 C16.3431458,37 15,35.6568542 15,34 L15,16 C15,14.3431458 16.3431458,13 18,13 Z" id="矩形备份" fill="#D8D8D8" fill-rule="nonzero"></path>
        <path d="M19.1327675,30.0074468 L22.0225684,30.0074468 L22.0225684,35.2752394 L26.4944844,30.9440268 L28.4642958,29.0056658 C28.9896325,28.4823214 29.3839573,28.0814888 29.6480352,27.8023748 L31.3003746,26.0317217 L25.455717,26.0317217 L25.455717,28.0317217 L26.6064449,28.0317217 L25.303018,29.3120541 L24.0225684,30.5589568 L24.0225684,28.0074468 L22.8672325,28.0074468 L25.8323676,23.5542239 L24.1676324,22.4457761 L19.1327675,30.0074468 Z" id="路径-3" fill="#E9E9E9" fill-rule="nonzero"></path>
        <rect id="矩形" fill="#D8D8D8" x="14" y="16" width="22" height="2"></rect>
    </g>
</svg>