<?xml version="1.0" encoding="UTF-8"?>
<svg width="50px" height="50px" viewBox="0 0 50 50" version="1.1" xmlns="http://www.w3.org/2000/svg" xmlns:xlink="http://www.w3.org/1999/xlink">
    <!-- Generator: Sketch 62 (91390) - https://sketch.com -->
    <title>p_02_icon_bass</title>
    <desc>Created with Sketch.</desc>
    <g id="p_02_icon_bass" stroke="none" stroke-width="1" fill="none" fill-rule="evenodd">
        <g id="icon_bass" transform="translate(9.000000, 12.000000)" fill-rule="nonzero">
            <path d="M8,22.5 C8,26.0394012 10.139789,28.0755573 16,28.0755573 C21.860211,28.0755573 24,26.0394012 24,22.5 L22,22.5 C22,24.9120153 20.7772379,26.0755573 16,26.0755573 C11.2227621,26.0755573 10,24.9120153 10,22.5 L8,22.5 Z" id="路径" fill="#E9E9E9"></path>
            <path d="M16,7 C25.3224399,7 33,10.5988563 33,15.5 C33,20.4011437 25.3224399,24 16,24 C6.67756008,24 -1,20.4011437 -1,15.5 C-1,10.5988563 6.67756008,7 16,7 Z M16,9 C7.64932792,9 1,12.1168725 1,15.5 C1,18.8831275 7.64932792,22 16,22 C24.3506721,22 31,18.8831275 31,15.5 C31,12.1168725 24.3506721,9 16,9 Z" id="椭圆形" fill="#D8D8D8"></path>
            <path d="M16,11 C20.3474172,11 24,12.8262914 24,15.5 C24,18.1737086 20.3474172,20 16,20 C11.6525828,20 8,18.1737086 8,15.5 C8,12.8262914 11.6525828,11 16,11 Z M16,13 C12.6154307,13 10,14.3077154 10,15.5 C10,16.6922846 12.6154307,18 16,18 C19.3845693,18 22,16.6922846 22,15.5 C22,14.3077154 19.3845693,13 16,13 Z" id="椭圆形" fill="#D8D8D8"></path>
            <path d="M19.5756499,4.21260679 L19.1094109,3.89760442 C18.1922899,3.31325606 17.2482881,3 16,3 C14.9712233,3 14.1473797,3.23924668 13.3602737,3.68212945 L13.1250759,3.82106775 C12.9456424,3.93203197 12.4442395,4.27204203 12.4938296,4.23943622 L13.5926088,5.91056888 L14.1268474,5.55387684 L14.1770062,5.52207999 C14.7401072,5.17385026 15.2707983,5 16,5 C16.7552436,5 17.3014829,5.15620127 17.8510911,5.47283145 L18.1400205,5.65272892 L18.4326852,5.85383555 L19.5756499,4.21260679 Z" id="路径" fill="#D8D8D8"></path>
            <path d="M21.5646464,0.690160527 C21.2084659,0.451220599 20.8372036,0.235334381 20.4530794,0.044008733 C19.0811104,-0.639345373 17.5652723,-1 16,-1 C14.4456608,-1 12.9399979,-0.644372126 11.5754283,0.029866319 C11.1875014,0.221542296 10.8125817,0.438228528 10.4529449,0.678386534 L11.5636261,2.34163253 C11.8513587,2.14949065 12.1512226,1.97618321 12.461387,1.82292993 C13.5519636,1.28407239 14.7546737,1 16,1 C17.2540722,1 18.4648948,1.28808406 19.5613991,1.83423394 C19.8685321,1.98721155 20.1654787,2.15988379 20.4504526,2.35105555 L21.5646464,0.690160527 Z" id="路径" fill="#D8D8D8"></path>
        </g>
    </g>
</svg>