<?xml version="1.0" encoding="UTF-8"?>
<svg width="50px" height="50px" viewBox="0 0 50 50" version="1.1" xmlns="http://www.w3.org/2000/svg" xmlns:xlink="http://www.w3.org/1999/xlink">
    <!-- Generator: Sketch 62 (91390) - https://sketch.com -->
    <title>p_02_icon_gamemode</title>
    <desc>Created with Sketch.</desc>
    <g id="p_02_icon_gamemode" stroke="none" stroke-width="1" fill="none" fill-rule="evenodd">
        <g id="编组" transform="translate(8.000000, 13.000000)" fill="#D8D8D8" fill-rule="nonzero">
            <path d="M32.7522012,11.6265173 C31.6722467,7.95144725 30.1882805,4.53781513 29.6716116,3.60784314 C29.0189772,2.43510738 28.121605,1.53501401 27.0028032,0.937441643 C25.8451542,0.317460317 24.4116894,0 22.7451409,0 L11.2541144,0 C9.58756596,0 8.15410119,0.31372549 6.99645214,0.937441643 C5.8815351,1.53501401 4.98416285,2.43510738 4.32764376,3.60784314 C3.80709016,4.53781513 2.32700865,7.95144725 1.24705416,11.6265173 C-0.194180058,16.5340803 -0.388416476,20.022409 0.675999095,21.9981326 C1.26647781,23.092437 2.24542935,23.7535014 3.51573553,23.9066293 C4.04017386,23.9701214 4.5257649,24 4.98027812,24 C8.38330017,24 9.94107624,22.3492063 11.331809,20.8702148 C12.1553714,19.9962652 12.9362018,19.1671335 14.0860814,18.7077498 L20.5463847,18.7077498 C21.6884948,19.1671335 22.3527834,19.9701214 23.1141901,20.8926237 C23.8134412,21.7404295 24.5398854,22.6143791 25.6742261,23.2306256 C26.948417,23.9215686 28.521732,24.1456583 30.4874045,23.9066293 C31.7577107,23.7535014 32.7366623,23.092437 33.327141,21.9981326 C34.3876718,20.022409 34.1934354,16.5340803 32.7522012,11.6265173 L32.7522012,11.6265173 Z M31.5984369,21.1428571 C31.2993128,21.6956116 30.8836468,21.9794585 30.2426667,22.054155 C29.7998076,22.1064426 29.3957959,22.1325864 29.0267467,22.1325864 C26.6220998,22.1325864 25.7247276,21.0494865 24.6331189,19.7273576 C23.7784787,18.6965453 22.8111813,17.5238095 21.070823,16.8963585 C20.9620506,16.8552754 20.8455088,16.8366013 20.7289669,16.8366013 L13.8996144,16.8366013 C13.7830726,16.8366013 13.6665307,16.8552754 13.5577583,16.8963585 C11.8795557,17.5014006 10.8229096,18.6255836 9.89057477,19.6153128 C8.38718489,21.210084 7.20234274,22.4687208 3.75270396,22.054155 C3.11172378,21.9757236 2.69605784,21.6956116 2.39693376,21.1428571 C1.59279499,19.6451914 1.84530233,16.4481793 3.11172378,12.1381886 C4.17225462,8.52661064 5.61348884,5.25116713 6.03692423,4.4929972 C7.0314147,2.70401494 8.69019371,1.87488329 11.2502297,1.87488329 L22.7412562,1.87488329 C25.3012922,1.87488329 26.9600712,2.70774977 27.9545617,4.4929972 C28.377997,5.25116713 29.8192313,8.52661064 30.8797621,12.1381886 C32.1500683,16.4481793 32.4025756,19.6451914 31.5984369,21.1428571 Z" id="形状"></path>
            <path d="M15.2727273,10.2909091 L12.7163636,10.2909091 L12.7163636,7.72727273 C12.7163636,7.32727273 12.3890909,7 11.9890909,7 C11.5890909,7 11.2618182,7.32727273 11.2618182,7.72727273 L11.2618182,10.2909091 L8.72727273,10.2909091 C8.32727273,10.2909091 8,10.6181818 8,11.0181818 C8,11.4181818 8.32727273,11.7454545 8.72727273,11.7454545 L11.2618182,11.7454545 L11.2618182,14.2727273 C11.2618182,14.6727273 11.5890909,15 11.9890909,15 C12.3890909,15 12.7163636,14.6727273 12.7163636,14.2727273 L12.7163636,11.7454545 L15.2727273,11.7454545 C15.6727273,11.7454545 16,11.4181818 16,11.0181818 C16,10.6181818 15.6727273,10.2909091 15.2727273,10.2909091 Z" id="路径"></path>
            <path d="M19,9.5 C19,10.3284271 19.6715729,11 20.5,11 C21.3284271,11 22,10.3284271 22,9.5 C22,8.67157288 21.3284271,8 20.5,8 C19.6715729,8 19,8.67157288 19,9.5 Z" id="路径"></path>
            <path d="M23,12.5 C23,13.0358984 23.2858983,13.5310889 23.75,13.7990381 C24.2141016,14.0669873 24.7858984,14.0669873 25.25,13.7990381 C25.7141017,13.5310889 26,13.0358984 26,12.5 C26,11.9641016 25.7141017,11.4689111 25.25,11.2009619 C24.7858984,10.9330127 24.2141016,10.9330127 23.75,11.2009619 C23.2858983,11.4689111 23,11.9641016 23,12.5 Z" id="路径"></path>
        </g>
    </g>
</svg>