<?xml version="1.0" encoding="UTF-8"?>
<svg width="50px" height="50px" viewBox="0 0 50 50" version="1.1" xmlns="http://www.w3.org/2000/svg" xmlns:xlink="http://www.w3.org/1999/xlink">
    <!-- Generator: Sketch 62 (91390) - https://sketch.com -->
    <title>p_02_icon_link</title>
    <desc>Created with Sketch.</desc>
    <g id="p_02_icon_link" stroke="none" stroke-width="1" fill="none" fill-rule="evenodd">
        <path d="M25,10 C33.2842712,10 40,16.7157288 40,25 C40,33.2842712 33.2842712,40 25,40 C16.7157288,40 10,33.2842712 10,25 C10,16.7157288 16.7157288,10 25,10 Z M25,12 C17.8202983,12 12,17.8202983 12,25 C12,32.1797017 17.8202983,38 25,38 C32.1797017,38 38,32.1797017 38,25 C38,17.8202983 32.1797017,12 25,12 Z M25.4841082,19.1917808 C28.5304748,19.1917808 31,21.7949016 31,25.0060126 C31,25.8357776 30.8347622,26.6247136 30.5376155,27.3388389 L30.5376155,27.3388389 L28.6980153,32.6573732 C28.6917131,32.6533362 28.6878349,32.6518799 28.6873016,32.653975 C28.6386053,32.8483346 28.4665564,32.9919773 28.2619059,32.9919773 C28.2472655,32.9919773 28.236261,32.9948644 28.2281894,33 L28.2281894,33 L26.248245,33 C26.2450939,32.9978793 26.2410945,32.9964741 26.2355437,32.9964741 C26.0829345,32.9964741 25.9592425,32.8721218 25.9592425,32.7186934 C25.9592425,32.683051 25.9659083,32.6489672 25.9780763,32.6176683 C25.9807426,32.6107953 25.9794579,32.6085725 25.9751676,32.6098755 L25.9751676,32.6098755 L26.6384213,30.6923406 C26.6359974,30.6929027 26.6335493,30.693337 26.6311254,30.6938991 L26.6311254,30.6938991 L28.2651782,25.9857823 C28.3614558,25.6769327 28.4143212,25.3479751 28.4143212,25.0060126 C28.4143212,23.3001602 27.1024057,21.9172866 25.484084,21.9172866 C24.7653955,21.9172866 24.1072562,22.1901872 23.5974843,22.6428328 L23.5974843,22.6428328 L24.7230498,19.3998353 L24.7230498,19.3998353 C24.7644259,19.3019529 24.8475175,19.2340407 24.9468007,19.2211379 C24.9580961,19.2196815 24.9695854,19.218915 24.9812444,19.218915 C24.9921763,19.218915 25.0012659,19.2169221 25.0090709,19.2136006 C25.1656311,19.1993437 25.3240334,19.1917808 25.4841082,19.1917808 Z M24.7127048,17 C24.7155256,17.0053655 24.7209503,17.0084571 24.7298226,17.0084571 C24.8808444,17.0084571 25.0032241,17.1315061 25.0032241,17.283299 C25.0032241,17.3185836 24.9966422,17.3523097 24.9845875,17.3833019 L24.9845875,17.3833019 L22.747806,23.9062302 L22.7647791,23.8870166 C22.6402295,24.2306904 22.5718068,24.6038233 22.5718068,24.9939726 C22.5718068,26.6998219 23.8767085,28.0826673 25.4863781,28.0826673 C26.1873855,28.0826673 26.8305542,27.8203194 27.3333333,27.3833113 L27.3333333,27.3833113 L26.2279617,30.6068337 L26.2279617,30.6068337 C26.1890973,30.7005002 26.1073661,30.7679523 26.0096263,30.781596 C26.0068296,30.7818771 26.0040329,30.7821581 26.0012362,30.7824392 L26.0012362,30.7824392 L25.9731004,30.7842532 C25.9659158,30.7842532 25.9596473,30.7853263 25.953861,30.7868082 C25.7997532,30.8007841 25.6439095,30.8082192 25.4864023,30.8082192 C22.4563224,30.8082192 20,28.2051032 20,24.9939726 C20,24.1646179 20.1642097,23.3760156 20.4595026,22.6621215 L20.4595026,22.6621215 L22.2915582,17.3370052 C22.2948612,17.3386404 22.2971998,17.3393047 22.2975614,17.3378228 C22.3457804,17.145482 22.5159934,17.0033471 22.718513,17.0033471 C22.7274335,17.0033471 22.7346664,17.0020185 22.7410795,17 L22.7410795,17 Z" id="形状结合" fill="#D8D8D8" fill-rule="nonzero"></path>
    </g>
</svg>