<?xml version="1.0" encoding="utf-8"?>
<!-- Generator: Adobe Illustrator 24.2.3, SVG Export Plug-In . SVG Version: 6.00 Build 0)  -->
<svg version="1.1" id="Layer_1" xmlns="http://www.w3.org/2000/svg" xmlns:xlink="http://www.w3.org/1999/xlink" x="0px" y="0px"
	 viewBox="0 0 457 160" style="enable-background:new 0 0 457 160;" xml:space="preserve">
<style type="text/css">
	.st0{fill:url(#p_01_NEO_1_);}
</style>
<desc>Created with Sketch.</desc>
<g id="页面-1">
	<g id="pc_cos" transform="translate(-1424.000000, -521.000000)">
		<g id="_x30_1-kv-中文备份" transform="translate(0.000000, 44.000000)">
			<g id="budsairneo" transform="translate(681.000000, 265.000000)">
				<linearGradient id="p_01_NEO_1_" gradientUnits="userSpaceOnUse" x1="808.6528" y1="150.4591" x2="1091.1346" y2="432.9409">
					<stop  offset="0" style="stop-color:#FFC915"/>
					<stop  offset="1" style="stop-color:#FFC915;stop-opacity:0.1"/>
				</linearGradient>
				<path id="p_01_NEO" class="st0" d="M778.6,368v-82.8l58.9,82.8h26.2V215.4h-34.9v82.8l-58.9-82.8h-26.2V368H778.6z M1007,368
					v-33.6h-61v-27h54.5v-33.1H946V249h60v-33.6h-94.8V368H1007z M1119.8,371.1c43.8,0,79.4-34.4,79.4-79.4s-35.5-79.4-79.4-79.4
					s-79.4,34.4-79.4,79.4S1075.9,371.1,1119.8,371.1z M1119.8,337c-24.9,0-44.5-18.1-44.5-45.3s19.6-45.3,44.5-45.3
					s44.5,18.1,44.5,45.3S1144.6,337,1119.8,337z"/>
			</g>
		</g>
	</g>
</g>
</svg>
