<?xml version="1.0" encoding="UTF-8"?>
<svg width="50px" height="50px" viewBox="0 0 50 50" version="1.1" xmlns="http://www.w3.org/2000/svg" xmlns:xlink="http://www.w3.org/1999/xlink">
    <!-- Generator: Sketch 62 (91390) - https://sketch.com -->
    <title>p_02_icon_auto connection</title>
    <desc>Created with Sketch.</desc>
    <g id="p_02_icon_auto-connection" stroke="none" stroke-width="1" fill="none" fill-rule="evenodd">
        <path d="M32,26 C34.7614237,26 37,28.2385763 37,31 L37,37 C37,39.7614237 34.7614237,42 32,42 L18,42 C15.2385763,42 13,39.7614237 13,37 L13,31 C13,28.2385763 15.2385763,26 18,26 L32,26 Z M32,28 L18,28 C16.3431458,28 15,29.3431458 15,31 L15,37 C15,38.6568542 16.3431458,40 18,40 L32,40 C33.6568542,40 35,38.6568542 35,37 L35,31 C35,29.3431458 33.6568542,28 32,28 Z" id="矩形" fill="#D8D8D8" fill-rule="nonzero"></path>
        <circle id="椭圆形" fill="#D8D8D8" cx="25" cy="31" r="1"></circle>
        <path d="M19.9056409,22 L19.9056409,24 L16,24 C15.4477153,24 15,24.4477153 15,25 C15,25.5128358 15.3860402,25.9355072 15.8833789,25.9932723 L16,26 L34,26 C34.5522847,26 35,25.5522847 35,25 C35,24.4871642 34.6139598,24.0644928 34.1166211,24.0067277 L34,24 L29.9551796,24 L29.9551796,22 L34,22 C35.6568542,22 37,23.3431458 37,25 C37,26.5976809 35.75108,27.9036609 34.1762728,27.9949073 L34,28 L16,28 C14.3431458,28 13,26.6568542 13,25 C13,23.4023191 14.24892,22.0963391 15.8237272,22.0050927 L16,22 L19.9056409,22 Z M26.9814392,22 L26.9814392,24 L23.0414112,24 L23.0414112,22 L26.9814392,22 Z" id="形状" fill="#D8D8D8" fill-rule="nonzero"></path>
        <path d="M19.1171023,22.9936903 C18.9653978,23.0032314 18.8124419,23.0079979 18.6582679,23.0079979 C16.8131212,23.0079979 15.2895748,21.9044987 14.1292768,19.8501009 L14,19.6212062 L14,15.9566965 L14.2725672,15.6677422 C16.553945,13.2492057 18.9068149,12.4231838 21.1978291,13.3943805 C22.7193786,14.039389 23.6525734,15.3910935 23.9854461,17.3208022 L24,17.4907906 L24,28 L19.1171023,28 L19.1171023,22.9936903 Z M16.1419678,19.3139241 C16.9033122,20.4795114 17.7321978,21.0079979 18.6582679,21.0079979 C19.0813295,21.0079979 19.4856675,20.9590306 19.8731038,20.8615504 L21.1171023,20.5485565 L21.1171023,26 L22,26 L22,17.5794501 C21.7676772,16.3271463 21.2438333,15.5861664 20.4172395,15.2357604 C19.0817224,14.6696139 17.6471879,15.1194948 16,16.7598473 L16,19.0878839 L16.1419678,19.3139241 Z" id="路径-2" fill="#D8D8D8" fill-rule="nonzero"></path>
        <g id="编组" transform="translate(24.650047, 9.438302) rotate(-360.000000) translate(-24.650047, -9.438302) translate(18.650047, 5.938302)" fill="#D8D8D8" fill-rule="nonzero">
            <path d="M8.42439974,6.85383555 L9.56736438,5.21260679 L9.10112543,4.89760442 C8.18400441,4.31325606 7.24000256,4 5.99171451,4 C4.96293785,4 4.13909416,4.23924668 3.35198824,4.68212945 L3.1167904,4.82106775 C2.93735694,4.93203197 2.43595399,5.27204203 2.48554414,5.23943622 L3.58432331,6.91056888 L4.11856195,6.55387684 L4.16872071,6.52207999 C4.73182172,6.17385026 5.26251276,6 5.99171451,6 C6.74695814,6 7.2931974,6.15620127 7.84280558,6.47283145 L8.13173496,6.65272892 C8.2019671,6.69937542 8.28134032,6.75420784 8.42439974,6.85383555 Z" id="路径"></path>
            <path d="M11.5563609,1.69016053 C11.2001804,1.4512206 10.8289182,1.23533438 10.4447939,1.04400873 C9.07282486,0.360654627 7.55698678,0 5.99171451,0 C4.43737527,0 2.93171243,0.355627874 1.56714276,1.02986632 C1.17921587,1.2215423 0.804296196,1.43822853 0.444659393,1.67838653 L1.55534061,3.34163253 C1.84307322,3.14949065 2.14293707,2.97618321 2.4531015,2.82292993 C3.54367808,2.28407239 4.74638818,2 5.99171451,2 C7.24578667,2 8.45660932,2.28808406 9.55311365,2.83423394 C9.86024659,2.98721155 10.1571932,3.15988379 10.4421671,3.35105555 L11.5563609,1.69016053 Z" id="路径"></path>
        </g>
        <path d="M31.1171023,22.9936903 C30.9653978,23.0032314 30.8124419,23.0079979 30.6582679,23.0079979 C28.8131212,23.0079979 27.2895748,21.9044987 26.1292768,19.8501009 L26,19.6212062 L26,15.9566965 L26.2725672,15.6677422 C28.553945,13.2492057 30.9068149,12.4231838 33.1978291,13.3943805 C34.7193786,14.039389 35.6525734,15.3910935 35.9854461,17.3208022 L36,17.4907906 L36,28 L31.1171023,28 L31.1171023,22.9936903 Z M28.1419678,19.3139241 C28.9033122,20.4795114 29.7321978,21.0079979 30.6582679,21.0079979 C31.0813295,21.0079979 31.4856675,20.9590306 31.8731038,20.8615504 L33.1171023,20.5485565 L33.1171023,26 L34,26 L34,17.5794501 C33.7676772,16.3271463 33.2438333,15.5861664 32.4172395,15.2357604 C31.0817224,14.6696139 29.6471879,15.1194948 28,16.7598473 L28,19.0878839 L28.1419678,19.3139241 Z" id="路径-2" fill="#D8D8D8" fill-rule="nonzero" transform="translate(31.000000, 20.498314) scale(-1, 1) translate(-31.000000, -20.498314) "></path>
    </g>
</svg>