<svg enable-background="new 0 0 125 20" viewBox="0 0 125 20" xmlns="http://www.w3.org/2000/svg" xmlns:xlink="http://www.w3.org/1999/xlink"><g transform="translate(-1 -9)"><image height="68" overflow="visible" transform="translate(-18.9453 -12.807)" width="148" xlink:href="3D07808818E324CF.png"/><g enable-background="new" fill="#ffc915"><path d="m10.7 28h-3.9v-10.7-1.8l.1-1.9c-.7.7-1.1 1.1-1.4 1.3l-2.1 1.7-1.9-2.4 6-4.8h3.2z"/><path d="m25.6 28h-3.9v-10.7-1.8l.1-1.9c-.7.7-1.1 1.1-1.4 1.3l-2.1 1.7-1.9-2.4 6-4.8h3.2z"/><path d="m43.6 17.4c0 3.7-.8 6.4-2.3 8.2s-3.9 2.7-7 2.7c-1.1 0-1.9-.1-2.5-.2v-3.1c.7.2 1.5.3 2.2.3 1.3 0 2.4-.2 3.2-.6s1.5-1 1.9-1.8.7-2 .8-3.4h-.2c-.5.8-1.1 1.4-1.7 1.7s-1.4.5-2.4.5c-1.6 0-2.9-.5-3.8-1.6-.9-1-1.4-2.5-1.4-4.3 0-2 .6-3.6 1.7-4.7 1.1-1.2 2.7-1.7 4.6-1.7 1.4 0 2.6.3 3.6 1s1.8 1.6 2.4 2.8c.6 1 .9 2.5.9 4.2zm-6.7-5c-.8 0-1.4.3-1.9.8s-.7 1.4-.7 2.4c0 .9.2 1.6.6 2.1s1 .8 1.9.8c.8 0 1.5-.3 2-.8.6-.5.9-1.1.9-1.8 0-1-.3-1.9-.8-2.6s-1.2-.9-2-.9z"/><path d="m46 26.2c0-.7.2-1.2.6-1.6s.9-.5 1.7-.5c.7 0 1.2.2 1.6.6s.6.9.6 1.6-.2 1.2-.6 1.6-.9.6-1.6.6-1.3-.2-1.7-.6c-.4-.5-.6-1-.6-1.7z"/><path d="m66 28h-13v-2.7l4.7-4.7c1.4-1.4 2.3-2.4 2.7-2.9s.7-1.1.9-1.5.3-.9.3-1.4c0-.7-.2-1.3-.6-1.7s-1-.5-1.6-.5c-.7 0-1.4.2-2.1.5s-1.4.8-2.1 1.4l-2.1-2.5c.9-.8 1.7-1.3 2.3-1.7s1.3-.6 2-.7c.7-.2 1.5-.3 2.4-.3 1.2 0 2.2.2 3.1.6s1.6 1 2.1 1.8.7 1.6.7 2.6c0 .9-.2 1.7-.5 2.4-.3.8-.8 1.5-1.4 2.3s-1.7 1.9-3.3 3.4l-2.4 2.2v.2h7.9z"/><path d="m81.5 28h-3.9v-8.3c0-1-.2-1.8-.5-2.3s-.9-.8-1.6-.8c-1 0-1.7.4-2.2 1.1s-.7 1.9-.7 3.6v6.7h-3.9v-14.2h3l.5 1.8h.2c.4-.7.9-1.2 1.7-1.5.7-.4 1.5-.6 2.5-.6 2.1 0 3.6.7 4.3 2.1h.3c.4-.7.9-1.2 1.7-1.5.7-.4 1.6-.5 2.5-.5 1.6 0 2.8.4 3.6 1.2s1.2 2.1 1.2 4v9.2h-3.9v-8.3c0-1-.2-1.8-.5-2.3s-.9-.8-1.6-.8c-.9 0-1.7.3-2.1 1-.5.7-.7 1.8-.7 3.2v7.2z"/><path d="m104.2 23.8c0 1.5-.5 2.6-1.5 3.3-1 .8-2.5 1.1-4.5 1.1-1 0-1.9-.1-2.6-.2s-1.4-.3-2-.6v-3.2c.7.3 1.5.6 2.4.9.9.2 1.7.3 2.4.3 1.4 0 2.1-.4 2.1-1.2 0-.3-.1-.6-.3-.7-.2-.2-.5-.4-1-.6s-1.1-.5-1.8-.8c-1.1-.5-1.9-.9-2.4-1.3s-.9-.8-1.1-1.3-.3-1.1-.3-1.9c0-1.3.5-2.2 1.5-2.9s2.4-1 4.2-1c1.7 0 3.4.4 5 1.1l-1.2 2.8c-.7-.3-1.4-.6-2-.7s-1.2-.3-1.9-.3c-1.1 0-1.7.3-1.7.9 0 .3.2.6.6.9s1.2.6 2.4 1.1c1.1.4 1.9.9 2.4 1.3s.9.8 1.1 1.3.2 1 .2 1.7z"/></g></g></svg>