<?xml version="1.0" encoding="UTF-8"?>
<svg width="200px" height="19px" viewBox="0 0 200 19" version="1.1" xmlns="http://www.w3.org/2000/svg" xmlns:xlink="http://www.w3.org/1999/xlink">
    <!-- Generator: Sketch 62 (91390) - https://sketch.com -->
    <title>p_01_model</title>
    <desc>Created with Sketch.</desc>
    <defs>
        <polygon id="path-1" points="0 0.263064242 6.04308998 0.263064242 6.04308998 12.9136339 0 12.9136339"></polygon>
        <polygon id="path-3" points="0.270628183 0.163452121 12.9772496 0.163452121 12.9772496 13.2363636 0.270628183 13.2363636"></polygon>
        <polygon id="path-5" points="0.0771816638 0.163723636 13.2310017 0.163723636 13.2310017 13.2363636 0.0771816638 13.2363636"></polygon>
        <polygon id="path-7" points="0 18.4659491 199.840407 18.4659491 199.840407 -0.000135757576 0 -0.000135757576"></polygon>
    </defs>
    <g id="页面-1" stroke="none" stroke-width="1" fill="none" fill-rule="evenodd">
        <g id="pc_cos" transform="translate(-1679.000000, -741.000000)">
            <g id="kv-text" transform="translate(1338.000000, 741.000000)">
                <g id="p_01_model" transform="translate(341.000000, 0.000000)">
                    <g id="编组">
                        <g transform="translate(0.000000, 5.229585)">
                            <mask id="mask-2" fill="white">
                                <use xlink:href="#path-1"></use>
                            </mask>
                            <g id="Clip-2"></g>
                            <path d="M6.04308998,0.263064242 L6.04308998,2.52512485 C4.1782343,2.45011879 2.16431239,3.39499152 2.16431239,6.32769455 L2.16431239,12.9136339 L-3.39558574e-05,12.9136339 L-3.39558574e-05,0.487064242 L2.16431239,0.487064242 L2.16431239,2.57467636 C2.95921902,0.83494303 4.47602716,0.263064242 6.04308998,0.263064242" id="Fill-1" fill="#231916" mask="url(#mask-2)"></path>
                        </g>
                        <g transform="translate(5.772496, 5.229585)">
                            <mask id="mask-4" fill="white">
                                <use xlink:href="#path-3"></use>
                            </mask>
                            <g id="Clip-4"></g>
                            <path d="M2.48353141,5.80519758 L10.788455,5.80519758 C10.4159593,3.34459152 8.65127334,2.20151273 6.7860781,2.20151273 C4.44855688,2.20151273 2.83157895,3.64325818 2.48353141,5.80519758 M6.98404075,11.1985067 C8.70016978,11.1985067 9.94329372,10.4029673 10.5650255,9.38444606 L12.4054329,10.4280824 C11.3113752,12.1182642 9.42207131,13.2365673 6.93514431,13.2365673 C2.93174873,13.2365673 0.270628183,10.4280824 0.270628183,6.70017939 C0.270628183,3.02182788 2.90628183,0.163452121 6.7860781,0.163452121 C10.5405772,0.163452121 12.9772496,3.24548848 12.9772496,6.72495515 C12.9772496,7.04771879 12.9528014,7.37116121 12.9025467,7.69426424 L2.48353141,7.69426424 C2.90628183,9.9312097 4.67198642,11.1985067 6.98404075,11.1985067" id="Fill-3" fill="#231916" mask="url(#mask-4)"></path>
                        </g>
                        <g transform="translate(19.694397, 5.229585)">
                            <mask id="mask-6" fill="white">
                                <use xlink:href="#path-5"></use>
                            </mask>
                            <g id="Clip-6"></g>
                            <path d="M11.0680136,6.70011152 C11.0680136,4.16517818 9.15290323,2.25167515 6.64186757,2.25167515 C4.15528014,2.25167515 2.24016978,4.16517818 2.24016978,6.70011152 C2.24016978,9.23538424 4.15528014,11.1488873 6.64186757,11.1488873 C9.15290323,11.1488873 11.0680136,9.23538424 11.0680136,6.70011152 L11.0680136,6.70011152 Z M13.2310017,0.487166061 L13.2310017,12.9137358 L11.0680136,12.9137358 L11.0680136,10.7762327 C10.0727674,12.2923055 8.48125637,13.2364994 6.36852292,13.2364994 C2.91181664,13.2364994 0.0771816638,10.3788024 0.0771816638,6.70011152 C0.0771816638,3.02209939 2.91181664,0.163723636 6.36852292,0.163723636 C8.48125637,0.163723636 10.0727674,1.10825697 11.0680136,2.6239903 L11.0680136,0.487166061 L13.2310017,0.487166061 Z" id="Fill-5" fill="#231916" mask="url(#mask-6)"></path>
                        </g>
                        <mask id="mask-8" fill="white">
                            <use xlink:href="#path-7"></use>
                        </mask>
                        <g id="Clip-8"></g>
                        <polygon id="Fill-7" fill="#231916" mask="url(#mask-8)" points="35.4631579 18.1431855 37.6275042 18.1431855 37.6275042 -0.000135757576 35.4631579 -0.000135757576"></polygon>
                        <path d="M58.2908319,10.4133527 L58.2908319,18.1430497 L56.1264856,18.1430497 L56.1264856,10.4886982 C56.1264856,8.52496485 55.0334465,7.45621333 53.3920204,7.45621333 C51.6517827,7.45621333 50.3339559,8.55008 50.3339559,11.2336679 L50.3339559,18.1430497 L48.1696095,18.1430497 L48.1696095,10.4886982 C48.1696095,8.52496485 47.1512733,7.45621333 45.5342954,7.45621333 C43.8680815,7.45621333 42.3516129,8.55008 42.3516129,11.2336679 L42.3516129,18.1430497 L40.1882852,18.1430497 L40.1882852,5.71681939 L42.3516129,5.71681939 L42.3516129,7.38154667 C43.2466893,5.99003152 44.5400679,5.39303758 46.0568761,5.39303758 C47.7471986,5.39303758 48.9903226,6.16380121 49.7122241,7.50576485 C50.5818336,6.08913455 51.9998302,5.39303758 53.6154499,5.39303758 C56.3757216,5.39303758 58.2908319,7.30721939 58.2908319,10.4133527" id="Fill-9" fill="#231916" mask="url(#mask-8)"></path>
                        <path d="M62.073073,11.034783 L70.3779966,11.034783 C70.0055008,8.57417697 68.2394567,7.43109818 66.374601,7.43109818 C64.0370798,7.43109818 62.4211205,8.87284364 62.073073,11.034783 M66.5735823,16.4280921 C68.2897114,16.4280921 69.5328353,15.6325527 70.1545671,14.6140315 L71.9939559,15.6576679 C70.8995586,17.3478497 69.0102547,18.4661527 66.5236672,18.4661527 C62.5199321,18.4661527 59.8601698,15.6576679 59.8601698,11.9297648 C59.8601698,8.25141333 62.4958234,5.39303758 66.374601,5.39303758 C70.1291002,5.39303758 72.5667912,8.47507394 72.5667912,11.9545406 C72.5667912,12.2773042 72.5409847,12.6007467 72.4910696,12.9238497 L62.073073,12.9238497 C62.4958234,15.1607952 64.261528,16.4280921 66.5735823,16.4280921" id="Fill-10" fill="#231916" mask="url(#mask-8)"></path>
                        <path d="M90.2732088,13.1477139 C90.2732088,11.5817503 89.0545331,10.3392291 87.5132767,10.3392291 L82.3163328,10.3392291 L82.3163328,15.9806352 L87.5132767,15.9806352 C89.0545331,15.9806352 90.2732088,14.7384533 90.2732088,13.1477139 L90.2732088,13.1477139 Z M82.3163328,2.90785939 L82.3163328,8.22650182 L86.9659083,8.22650182 C88.4083531,8.22650182 89.5516469,7.05830788 89.5516469,5.5673503 C89.5516469,4.10116848 88.4083531,2.90785939 86.9659083,2.90785939 L82.3163328,2.90785939 Z M92.5608149,13.2223806 C92.5608149,16.0057503 90.3221053,18.1432533 87.5132767,18.1432533 L80.0032598,18.1432533 L80.0032598,0.74592 L86.9659083,0.74592 C89.6759253,0.74592 91.8389134,2.80875636 91.8389134,5.49268364 C91.8389134,7.05830788 91.0929032,8.32594424 89.9496095,9.12114424 C91.5166723,9.86713212 92.5608149,11.3329745 92.5608149,13.2223806 L92.5608149,13.2223806 Z" id="Fill-11" fill="#231916" mask="url(#mask-8)"></path>
                        <path d="M105.34292,5.71668364 L105.34292,18.1432533 L103.178913,18.1432533 L103.178913,16.3532897 C102.259389,17.8201503 100.891647,18.466017 99.1510696,18.466017 C96.2417317,18.466017 94.3279796,16.5273988 94.3279796,13.3462594 L94.3279796,5.71668364 L96.4909677,5.71668364 L96.4909677,13.2223806 C96.4909677,15.2604412 97.6597284,16.40352 99.5734805,16.40352 C101.562954,16.40352 103.178913,15.2349867 103.178913,12.302623 L103.178913,5.71668364 L105.34292,5.71668364 Z" id="Fill-12" fill="#231916" mask="url(#mask-8)"></path>
                        <path d="M118.175518,11.929697 C118.175518,9.39476364 116.260068,7.48126061 113.749372,7.48126061 C111.262784,7.48126061 109.347674,9.39476364 109.347674,11.929697 C109.347674,14.4649697 111.262784,16.3784727 113.749372,16.3784727 C116.260068,16.3784727 118.175518,14.4649697 118.175518,11.929697 L118.175518,11.929697 Z M120.338166,0.745987879 L120.338166,18.1433212 L118.175518,18.1433212 L118.175518,16.0058182 C117.179932,17.5218909 115.588761,18.4660848 113.475688,18.4660848 C110.019321,18.4660848 107.184686,15.6083879 107.184686,11.929697 C107.184686,8.25168485 110.019321,5.39330909 113.475688,5.39330909 C115.588761,5.39330909 117.179932,6.33784242 118.175518,7.85357576 L118.175518,0.745987879 L120.338166,0.745987879 Z" id="Fill-13" fill="#231916" mask="url(#mask-8)"></path>
                        <path d="M131.679287,14.7383176 C131.679287,17.0495903 129.690153,18.4658812 127.030051,18.4658812 C124.543124,18.4658812 122.802547,17.2732509 122.080985,15.5582933 L123.94618,14.4895418 C124.344143,15.6825115 125.488795,16.42816 127.030051,16.42816 C128.347538,16.42816 129.490832,15.956063 129.490832,14.7383176 C129.490832,12.0791661 122.529202,13.59456 122.529202,9.09623273 C122.529202,6.90951758 124.418506,5.39310545 126.929881,5.39310545 C128.96927,5.39310545 130.611036,6.36241455 131.405603,7.97826909 L129.591002,8.9971297 C129.118336,7.87848727 128.023939,7.4067297 126.929881,7.4067297 C125.811036,7.4067297 124.716638,7.95315394 124.716638,9.07179636 C124.716638,11.7312873 131.679287,10.1649842 131.679287,14.7383176" id="Fill-14" fill="#231916" mask="url(#mask-8)"></path>
                        <path d="M148.440679,12.0791661 L145.307912,3.50471758 L142.199593,12.0791661 L148.440679,12.0791661 Z M149.235925,14.2411055 L141.403328,14.2411055 L139.987029,18.1431176 L137.52455,18.1431176 L144.014533,0.745784242 L146.625739,0.745784242 L153.114703,18.1431176 L150.653922,18.1431176 L149.235925,14.2411055 Z" id="Fill-15" fill="#231916" mask="url(#mask-8)"></path>
                        <path d="M154.211205,18.1431855 L156.375552,18.1431855 L156.375552,5.71661576 L154.211205,5.71661576 L154.211205,18.1431855 Z M153.83871,2.01348848 C153.83871,1.21828848 154.48489,0.546967273 155.305603,0.546967273 C156.101868,0.546967273 156.748048,1.21828848 156.748048,2.01348848 C156.748048,2.80868848 156.101868,3.45455515 155.305603,3.45455515 C154.48489,3.45455515 153.83871,2.80868848 153.83871,2.01348848 L153.83871,2.01348848 Z" id="Fill-16" fill="#231916" mask="url(#mask-8)"></path>
                        <path d="M164.978574,5.4926497 L164.978574,7.7547103 C163.113718,7.67970424 161.099457,8.62457697 161.099457,11.55728 L161.099457,18.1432194 L158.936469,18.1432194 L158.936469,5.7166497 L161.099457,5.7166497 L161.099457,7.80426182 C161.895722,6.06452848 163.412869,5.4926497 164.978574,5.4926497" id="Fill-17" fill="#231916" mask="url(#mask-8)"></path>
                        <path d="M172.801664,3.97016242 C172.801664,2.79042909 173.761935,1.83096242 174.941562,1.83096242 L196.503871,1.83096242 C197.683837,1.83096242 198.644109,2.79042909 198.644109,3.97016242 L198.644109,14.8833745 C198.644109,16.0627685 197.683837,17.0222352 196.503871,17.0222352 L174.941562,17.0222352 C173.761935,17.0222352 172.801664,16.0627685 172.801664,14.8833745 L172.801664,3.97016242 Z M196.503871,0.63561697 L174.941562,0.63561697 C173.102513,0.63561697 171.606078,2.13132606 171.606078,3.97016242 L171.606078,14.8833745 C171.606078,16.7218715 173.102513,18.2175806 174.941562,18.2175806 L196.503871,18.2175806 C198.343599,18.2175806 199.840713,16.7218715 199.840713,14.8833745 L199.840713,3.97016242 C199.840713,2.13132606 198.343599,0.63561697 196.503871,0.63561697 L196.503871,0.63561697 Z" id="Fill-18" fill="#231916" mask="url(#mask-8)"></path>
                        <polygon id="Fill-19" fill="#231916" mask="url(#mask-8)" points="180.978268 11.0308121 176.700849 4.83110303 176.675382 4.79444848 175.62343 4.79444848 175.62343 13.578303 176.937861 13.578303 176.937861 7.33073939 181.21528 13.5416485 181.240407 13.578303 182.293718 13.578303 182.293718 4.79444848 180.978268 4.79444848"></polygon>
                        <path d="M184.43056,9.88868364 C184.632258,8.89018667 185.401358,8.27452606 186.460102,8.27452606 C187.2309,8.27452606 188.118166,8.70080485 188.340577,9.88868364 L184.43056,9.88868364 Z M186.460102,7.09581091 C184.540917,7.09581091 183.148387,8.49275636 183.148387,10.4174594 C183.148387,12.3727079 184.540238,13.7387685 186.533447,13.7387685 C187.729711,13.7387685 188.716469,13.2310352 189.312733,12.3089018 L189.36129,12.2335564 L188.30017,11.6314715 L188.257725,11.7017261 C187.93107,12.2386473 187.295416,12.5593745 186.557216,12.5593745 C185.448896,12.5593745 184.662818,11.9766352 184.433956,10.9944291 L189.56129,10.9944291 L189.572156,10.9221382 C189.596944,10.7558352 189.609508,10.5898715 189.609508,10.4293382 C189.609508,8.52873212 188.255688,7.09581091 186.460102,7.09581091 L186.460102,7.09581091 Z" id="Fill-20" fill="#231916" mask="url(#mask-8)"></path>
                        <path d="M195.364754,10.4173236 C195.364754,11.6174206 194.464584,12.5225842 193.270357,12.5225842 C192.103294,12.5225842 191.188523,11.5980752 191.188523,10.4173236 C191.188523,9.23657212 192.103294,8.31138424 193.270357,8.31138424 C194.464584,8.31138424 195.364754,9.21654788 195.364754,10.4173236 M193.270357,7.09567515 C191.407199,7.09567515 189.947776,8.5547297 189.947776,10.4173236 C189.947776,12.2795782 191.407199,13.7386327 193.270357,13.7386327 C195.140645,13.7386327 196.605501,12.2795782 196.605501,10.4173236 C196.605501,8.5547297 195.140645,7.09567515 193.270357,7.09567515" id="Fill-21" fill="#231916" mask="url(#mask-8)"></path>
                    </g>
                </g>
            </g>
        </g>
    </g>
</svg>