<svg height="213" viewBox="0 0 530 213" width="530" xmlns="http://www.w3.org/2000/svg"><path d="m1320.8 539v-59h19.7v-11h-51v11h19.8v59zm43.9 1.3c9.8 0 17.3-4.1 21.9-10.9l-8.9-5.2c-2.4 3.5-6.9 6.2-12.9 6.2-8 0-14.3-4-16-11.8h39.8c.2-1.4.4-3 .4-4.5 0-14.4-10.2-26.4-25.1-26.4-15.7 0-26.4 11.5-26.4 26.3 0 15 10.7 26.3 27.2 26.3zm13.4-30.5h-29.4c1.5-7.5 7-12.3 15.1-12.3 6.5 0 12.8 3.7 14.3 12.3zm44.7 30.5c9.8 0 18.3-5.1 22.5-13l-9.3-5.3c-2.4 4.6-7.3 7.7-13.3 7.7-8.8 0-15.5-6.7-15.5-15.7s6.7-15.7 15.5-15.7c6 0 10.9 3 13.1 7.7l9.3-5.4c-4-7.8-12.5-12.9-22.3-12.9-15.1 0-26.4 11.4-26.4 26.3 0 14.8 11.3 26.3 26.4 26.3zm42.1-1.3v-26.8c0-10.2 5.6-14.4 12.7-14.4 6.8 0 11.2 4 11.2 11.6v29.6h10.8v-30.7c0-13-8-20.6-19.2-20.6-6.8 0-12.2 2.5-15.5 7.7v-26.4h-10.8v70zm-144.1 140v-59h19.7v-11h-51v11h19.8v59zm32.8 0v-25.2c0-11.2 8.3-14.5 15.4-14v-11.7c-6.3 0-12.4 2.5-15.4 9.3v-8.4h-10.8v50zm46.5 1.3c9.8 0 17.3-4.1 21.9-10.9l-8.9-5.2c-2.4 3.5-6.9 6.2-12.9 6.2-8 0-14.3-4-16-11.8h39.8c.2-1.4.4-3 .4-4.5 0-14.4-10.2-26.4-25.1-26.4-15.7 0-26.4 11.5-26.4 26.3 0 15 10.7 26.3 27.2 26.3zm13.4-30.5h-29.4c1.5-7.5 7-12.3 15.1-12.3 6.5 0 12.8 3.7 14.3 12.3zm32.2 29.2v-26.8c0-10.2 5.6-14.4 12.7-14.4 6.8 0 11.2 4 11.2 11.6v29.6h10.8v-30.7c0-13-8-20.6-19.2-20.6-6.8 0-12.2 2.5-15.5 7.7v-6.4h-10.8v50zm69.4 1.3c7.8 0 13.7-3.2 17.5-8.5v7.2h10.8v-70h-10.8v27.1c-3.8-5.2-9.7-8.4-17.5-8.4-13.6 0-24.9 11.4-24.9 26.3 0 14.8 11.3 26.3 24.9 26.3zm1.7-10.3c-9 0-15.8-6.7-15.8-16s6.8-16 15.8-16 15.8 6.7 15.8 16-6.8 16-15.8 16zm57 10.3c10.8 0 19.5-5.4 19.5-15.4 0-18.5-26.9-13-26.9-22.1 0-3.6 3.4-5.3 7.3-5.3 4.1 0 7.6 1.8 9.4 5.7l9.1-5.1c-3.5-6.6-10.3-10.4-18.5-10.4-10.2 0-18.3 5.9-18.3 15.3 0 17.9 26.9 12.9 26.9 21.8 0 4-3.7 5.6-8.5 5.6-5.5 0-9.5-2.7-11.1-7.2l-9.3 5.4c3.2 7.2 10.4 11.7 20.4 11.7zm53.1 0c9.8 0 17.3-4.1 21.9-10.9l-8.9-5.2c-2.4 3.5-6.9 6.2-12.9 6.2-8 0-14.3-4-16-11.8h39.8c.2-1.4.4-3 .4-4.5 0-14.4-10.2-26.4-25.1-26.4-15.7 0-26.4 11.5-26.4 26.3 0 15 10.7 26.3 27.2 26.3zm13.4-30.5h-29.4c1.5-7.5 7-12.3 15.1-12.3 6.5 0 12.8 3.7 14.3 12.3zm47.7 29.2v-9.7c-8.2.4-12.4.5-12.4-5.9v-24h12.4v-10.4h-12.4v-14l-10.8 3.2v10.8h-9.2v10.4h9.2v24c0 13 6.6 17.6 23.2 15.6zm36.4 0v-9.7c-8.2.4-12.4.5-12.4-5.9v-24h12.4v-10.4h-12.4v-14l-10.8 3.2v10.8h-9.2v10.4h9.2v24c0 13 6.6 17.6 23.2 15.6zm33.2 1.3c9.8 0 17.3-4.1 21.9-10.9l-8.9-5.2c-2.4 3.5-6.9 6.2-12.9 6.2-8 0-14.3-4-16-11.8h39.8c.2-1.4.4-3 .4-4.5 0-14.4-10.2-26.4-25.1-26.4-15.7 0-26.4 11.5-26.4 26.3 0 15 10.7 26.3 27.2 26.3zm13.4-30.5h-29.4c1.5-7.5 7-12.3 15.1-12.3 6.5 0 12.8 3.7 14.3 12.3zm32.2 29.2v-25.2c0-11.2 8.3-14.5 15.4-14v-11.7c-6.3 0-12.4 2.5-15.4 9.3v-8.4h-10.8v50z" fill="none" stroke="#000" stroke-width=".6" transform="translate(-1289 -468)"/></svg>