<svg height="92" viewBox="0 0 603 92" width="603" xmlns="http://www.w3.org/2000/svg"><path d="m714.5 1484c19.3 0 33.5-15.5 33.5-35 0-19.6-14.2-35-33.5-35h-27.5v70zm0-11h-16v-48h16c13.3 0 22.4 10.1 22.4 24 0 13.8-9.1 24-22.4 24zm66.4 12.3c7.8 0 13.7-3.2 17.5-8.5v7.2h10.8v-50h-10.8v7.1c-3.8-5.2-9.7-8.4-17.5-8.4-13.6 0-24.9 11.4-24.9 26.3 0 14.8 11.3 26.3 24.9 26.3zm1.7-10.3c-9 0-15.8-6.7-15.8-16s6.8-16 15.8-16 15.8 6.7 15.8 16-6.8 16-15.8 16zm51 9v-25.2c0-11.2 8.3-14.5 15.4-14v-11.7c-6.3 0-12.4 2.5-15.4 9.3v-8.4h-10.8v50zm46.5 1.3c9.8 0 17.3-4.1 21.9-10.9l-8.9-5.2c-2.4 3.5-6.9 6.2-12.9 6.2-8 0-14.3-4-16-11.8h39.8c.2-1.4.4-3 .4-4.5 0-14.4-10.2-26.4-25.1-26.4-15.7 0-26.4 11.5-26.4 26.3 0 15 10.7 26.3 27.2 26.3zm13.4-30.5h-29.4c1.5-7.5 7-12.3 15.1-12.3 6.5 0 12.8 3.7 14.3 12.3zm75.3 29.2v-9.7c-8.2.4-12.4.5-12.4-5.9v-24h12.4v-10.4h-12.4v-14l-10.8 3.2v10.8h-9.2v10.4h9.2v24c0 13 6.6 17.6 23.2 15.6zm32.4 1.3c14.7 0 26.4-11.5 26.4-26.3 0-14.9-11.7-26.3-26.4-26.3-14.6 0-26.4 11.4-26.4 26.3 0 14.8 11.8 26.3 26.4 26.3zm0-10.5c-8.8 0-15.6-6.7-15.6-15.8s6.8-15.8 15.6-15.8 15.6 6.7 15.6 15.8-6.8 15.8-15.6 15.8zm103.9 9.2v-11h-28.5v-59h-11.5v70zm31.6 1.3c9.8 0 17.3-4.1 21.9-10.9l-8.9-5.2c-2.4 3.5-6.9 6.2-12.9 6.2-8 0-14.3-4-16-11.8h39.8c.2-1.4.4-3 .4-4.5 0-14.4-10.2-26.4-25.1-26.4-15.7 0-26.4 11.5-26.4 26.3 0 15 10.7 26.3 27.2 26.3zm13.4-30.5h-29.4c1.5-7.5 7-12.3 15.1-12.3 6.5 0 12.8 3.7 14.3 12.3zm43.2 30.5c7.8 0 13.7-3.2 17.5-8.5v7.2h10.8v-50h-10.8v7.1c-3.8-5.2-9.7-8.4-17.5-8.4-13.6 0-24.9 11.4-24.9 26.3 0 14.8 11.3 26.3 24.9 26.3zm1.7-10.3c-9 0-15.8-6.7-15.8-16s6.8-16 15.8-16 15.8 6.7 15.8 16-6.8 16-15.8 16zm51 29v-27.1c3.8 5.2 9.7 8.4 17.5 8.4 13.6 0 24.9-11.4 24.9-26.3 0-14.8-11.3-26.3-24.9-26.3-7.8 0-13.7 3.2-17.5 8.5v-7.2h-10.8v70zm15.8-29c-9 0-15.8-6.7-15.8-16s6.8-16 15.8-16 15.8 6.7 15.8 16-6.8 16-15.8 16z" fill="none" stroke="#000" stroke-width=".6" transform="translate(-686 -1413)"/></svg>