<?xml version="1.0" encoding="UTF-8"?>
<svg width="50px" height="50px" viewBox="0 0 50 50" version="1.1" xmlns="http://www.w3.org/2000/svg" xmlns:xlink="http://www.w3.org/1999/xlink">
    <!-- Generator: Sketch 62 (91390) - https://sketch.com -->
    <title>p_02_icon_control</title>
    <desc>Created with Sketch.</desc>
    <g id="p_02_icon_control" stroke="none" stroke-width="1" fill="none" fill-rule="evenodd">
        <g id="icon_wear" transform="translate(8.000000, 8.000000)" fill-rule="nonzero">
            <path d="M12.0869995,8.02902938 C12.0869995,4.54122673 17.5727106,1.12316386 23.108418,2.69580703 C30.3448776,4.75161813 32.2984765,14.5412059 25.1902754,19.8153862 L24.9526512,19.9876082 C22.3264722,21.8467727 20.4744632,23.7117098 19.1263882,25.6959312 C18.6023915,26.467198 18.1713152,27.2275475 17.7501571,28.0868091 L16.866388,29.9766701 C16.2518989,31.2452599 15.7995502,31.7236448 14.8677281,31.987751 C12.4554666,32.6714579 10.7558507,30.4029941 10.7558507,28.0340188 L8.75585072,28.0340188 C8.75585072,31.5366738 11.389859,35.0522637 15.4131051,33.9119557 C16.9130503,33.4868265 17.7415951,32.6686498 18.5403728,31.1021568 L18.6663418,30.8485453 C18.7587313,30.6578105 19.2030931,29.6883598 19.4468324,29.1738015 L19.5460386,28.9670418 C19.9283449,28.1870471 20.3140164,27.5067843 20.7807045,26.8198696 C21.9206311,25.1420203 23.4778274,23.5427794 25.686446,21.9237814 L26.108253,21.6199637 C34.8874223,15.4048809 32.5643178,3.30299884 23.6549719,0.771936228 C16.9209812,-1.14112812 10.0869995,3.11702155 10.0869995,8.02902938 L12.0869995,8.02902938 Z" id="路径-8" fill="#D8D8D8"></path>
            <path d="M24.9948306,14.3967131 C24.9001103,12.2594215 23.4949125,10.2534771 21.6341371,9.53095717 C19.6438347,8.75814324 17.7711233,8.84451413 16.1410565,9.68386655 L17.0566429,11.4619839 C18.1734844,10.886901 19.4492403,10.8280622 20.910215,11.3953436 C22.0233974,11.8275809 22.9367946,13.1314713 22.9967918,14.485262 C23.0674488,16.0795831 22.0137193,17.533678 19.6165111,18.5111174 L19.5044364,18.5651751 C18.3503696,19.2132489 17.5597763,20.0734588 16.9546656,21.1870645 C16.8425906,21.3933199 16.7389995,21.6033415 16.6327236,21.8365572 L16.1975049,22.8502545 C15.851554,23.6527538 15.6598809,23.8888962 15.361417,23.9533447 C14.5891939,24.120094 14.2290726,23.8693865 13.966332,22.8826159 L12.033668,23.397213 C12.5586464,25.3688655 13.913516,26.3120922 15.7835557,25.9082869 C16.8377168,25.6806576 17.3867487,25.0672531 17.931835,23.8728157 L18.0930491,23.5031815 L18.3586176,22.8771958 C18.4830492,22.5916506 18.5936835,22.3596759 18.7119873,22.1419574 C19.095435,21.4362855 19.5558551,20.9009783 20.2083426,20.4756187 L20.43311,20.3378215 C23.5336851,19.053486 25.1043893,16.868823 24.9948306,14.3967131 Z" id="路径-9" fill="#E9E9E9"></path>
            <path d="M10.2298779,7.91734294 C6.98765147,7.91734294 4.35844929,10.5409766 4.35844929,13.7784541 L4.3624998,13.9982164 C4.47558267,17.0609111 6.94253034,19.5226788 10.0097906,19.6355232 L10.071,19.636 L10.0715499,31.3928771 L15.6143515,31.3928771 L15.615,16.112 L15.514602,16.3348961 C15.8988592,15.5445543 16.1013064,14.6748753 16.1013064,13.7784541 C16.1013064,10.5409766 13.4721043,7.91734294 10.2298779,7.91734294 Z M10.2298779,9.91734294 C12.3684829,9.91734294 14.1013064,11.6464964 14.1013064,13.7784541 C14.1013064,14.3702016 13.9684209,14.9410553 13.715923,15.4603941 L13.615276,15.6674051 L13.614,29.392 L12.071,29.392 L12.0715964,17.3784642 L10.9003497,17.5820388 C10.6807739,17.6202033 10.4567886,17.6395652 10.2298779,17.6395652 C8.09127283,17.6395652 6.35844929,15.9104117 6.35844929,13.7784541 C6.35844929,11.6464964 8.09127283,9.91734294 10.2298779,9.91734294 Z" id="形状结合" fill="#D8D8D8" transform="translate(10.229878, 19.655110) rotate(34.000000) translate(-10.229878, -19.655110) "></path>
        </g>
    </g>
</svg>