<?xml version="1.0" encoding="UTF-8"?>
<svg width="89px" height="89px" viewBox="0 0 89 89" version="1.1" xmlns="http://www.w3.org/2000/svg" xmlns:xlink="http://www.w3.org/1999/xlink">
    <!-- Generator: Sketch 63.1 (92452) - https://sketch.com -->
    <title>09_yuan</title>
    <desc>Created with Sketch.</desc>
    <g id="页面-1" stroke="none" stroke-width="1" fill="none" fill-rule="evenodd">
        <g id="pc_cos" transform="translate(-847.000000, -7329.000000)" fill="#FFC915">
            <g id="09-touchcontrol" transform="translate(0.000000, 7029.000000)">
                <g id="09_yuan" transform="translate(847.500000, 300.500000)">
                    <path d="M44,0 C19.699471,0 0,19.699471 0,44 C0,68.300529 19.699471,88 44,88 C68.300529,88 88,68.300529 88,44 C88,19.699471 68.300529,0 44,0 Z M44,1 C67.7482442,1 87,20.2517558 87,44 C87,67.7482442 67.7482442,87 44,87 C20.2517558,87 1,67.7482442 1,44 C1,20.2517558 20.2517558,1 44,1 Z" id="椭圆形备份-10" fill-rule="nonzero"></path>
                    <circle id="椭圆形" opacity="0.2" cx="44" cy="44" r="43.5"></circle>
                    <circle id="椭圆形" cx="44" cy="44" r="23.5"></circle>
                </g>
            </g>
        </g>
    </g>
</svg>