<svg id="图层_1" data-name="图层 1" xmlns="http://www.w3.org/2000/svg" width="20.76cm" height="1.92cm" viewBox="0 0 588.53 54.41">
  <defs>
    <style>
      .cls-1 {
        fill: #231815;
      }
    </style>
  </defs>
  <g>
    <g>
      <g>
        <path class="cls-1" d="M17.8,16.18v6.67c-5.5-.22-11.43,2.56-11.43,11.2V53.46H0V16.84H6.37V23C8.71,17.87,13.18,16.18,17.8,16.18Z"/>
        <path class="cls-1" d="M37.57,48.4c5,0,8.71-2.34,10.54-5.34l5.42,3.07c-3.22,5-8.78,8.28-16.11,8.28-11.79,0-19.62-8.28-19.62-19.26S25.56,15.89,37,15.89c11,0,18.23,9.08,18.23,19.33A18.37,18.37,0,0,1,55,38.08H24.31C25.56,44.67,30.76,48.4,37.57,48.4ZM24.31,32.51H48.77C47.68,25.26,42.48,21.9,37,21.9,30.1,21.9,25.34,26.14,24.31,32.51Z"/>
        <path class="cls-1" d="M97,16.84V53.46H90.6v-6.3a15.86,15.86,0,0,1-13.85,7.25c-10.17,0-18.52-8.42-18.52-19.26s8.35-19.26,18.52-19.26A15.86,15.86,0,0,1,90.6,23.14v-6.3ZM90.6,35.15a13,13,0,1,0-26,0,13,13,0,1,0,26,0Z"/>
        <path class="cls-1" d="M104.44,0h6.37V53.46h-6.37Z"/>
        <path class="cls-1" d="M171.67,30.68V53.46h-6.38V30.9c0-5.78-3.22-8.93-8-8.93-5.13,0-9,3.22-9,11.13V53.46h-6.37V30.9c0-5.78-3-8.93-7.76-8.93s-9.38,3.22-9.38,11.13V53.46h-6.37V16.84h6.37v4.91a12.27,12.27,0,0,1,10.92-5.86,11.52,11.52,0,0,1,10.76,6.22,13,13,0,0,1,11.5-6.22C166,15.89,171.67,21.53,171.67,30.68Z"/>
        <path class="cls-1" d="M196.06,48.4c5.05,0,8.71-2.34,10.55-5.34L212,46.13c-3.22,5-8.78,8.28-16.11,8.28-11.79,0-19.62-8.28-19.62-19.26s7.76-19.26,19.18-19.26c11.06,0,18.24,9.08,18.24,19.33a19.67,19.67,0,0,1-.22,2.86H182.81C184.05,44.67,189.25,48.4,196.06,48.4ZM182.81,32.51h24.45C206.17,25.26,201,21.9,195.47,21.9,188.59,21.9,183.83,26.14,182.81,32.51Z"/>
        <path class="cls-1" d="M272.59,39a14.52,14.52,0,0,1-14.86,14.5H235.61V2.2h20.5a14,14,0,0,1,14.36,14,12.76,12.76,0,0,1-5.57,10.7A13,13,0,0,1,272.59,39ZM242.42,8.57V24.24h13.69a7.66,7.66,0,0,0,7.62-7.84,7.7,7.7,0,0,0-7.62-7.83Zm23.43,30.17a8.14,8.14,0,0,0-8.12-8.28H242.42V47.09h15.31A8.15,8.15,0,0,0,265.85,38.74Z"/>
        <path class="cls-1" d="M310.24,16.84V53.46h-6.38V48.18c-2.71,4.33-6.73,6.23-11.86,6.23-8.57,0-14.2-5.71-14.2-15.09V16.84h6.37V39c0,6,3.44,9.37,9.07,9.37,5.86,0,10.62-3.44,10.62-12.08V16.84Z"/>
        <path class="cls-1" d="M354.4,2.2V53.46H348v-6.3a15.84,15.84,0,0,1-13.84,7.25c-10.18,0-18.53-8.42-18.53-19.26S324,15.89,334.19,15.89A15.84,15.84,0,0,1,348,23.14V2.2ZM348,35.15a13,13,0,1,0-26,0,13,13,0,1,0,26,0Z"/>
        <path class="cls-1" d="M387.8,43.43c0,6.8-5.86,11-13.7,11-7.32,0-12.45-3.52-14.57-8.57L365,42.69c1.17,3.52,4.54,5.71,9.08,5.71,3.88,0,7.25-1.39,7.25-5,0-7.84-20.5-3.37-20.5-16.63,0-6.44,5.56-10.91,13-10.91,6,0,10.84,2.86,13.18,7.62l-5.34,3c-1.4-3.3-4.62-4.69-7.84-4.69s-6.52,1.61-6.52,4.91C367.29,34.57,387.8,30,387.8,43.43Z"/>
        <path class="cls-1" d="M439.5,42H416.43l-4.17,11.5H405L424.12,2.2h7.69l19.11,51.26h-7.24Zm-2.34-6.37-9.23-25.26-9.15,25.26Z"/>
        <path class="cls-1" d="M453.06,5.93a4.28,4.28,0,1,1,8.56,0,4.28,4.28,0,0,1-8.56,0Zm1.09,10.91h6.38V53.46h-6.38Z"/>
        <path class="cls-1" d="M485.86,16.18v6.67c-5.49-.22-11.42,2.56-11.42,11.2V53.46h-6.37V16.84h6.37V23C476.78,17.87,481.25,16.18,485.86,16.18Z"/>
      </g>
      <path class="cls-1" d="M578.7,1.87H515.2a9.84,9.84,0,0,0-9.82,9.83V43.85a9.84,9.84,0,0,0,9.82,9.83h63.5a9.84,9.84,0,0,0,9.83-9.83V11.7A9.84,9.84,0,0,0,578.7,1.87ZM508.9,11.7a6.31,6.31,0,0,1,6.3-6.31h63.5A6.32,6.32,0,0,1,585,11.7V43.85a6.31,6.31,0,0,1-6.31,6.3H515.2a6.31,6.31,0,0,1-6.3-6.3Z"/>
    </g>
    <g>
      <polygon class="cls-1" points="532.98 32.5 520.38 14.23 520.31 14.13 517.21 14.13 517.21 40.01 521.08 40.01 521.08 21.6 533.68 39.9 533.75 40.01 536.86 40.01 536.86 14.13 532.98 14.13 532.98 32.5"/>
      <path class="cls-1" d="M549.12,20.91a9.44,9.44,0,0,0-9.75,9.78c0,5.77,4.1,9.79,10,9.79a9.39,9.39,0,0,0,8.19-4.21l.14-.22-3.13-1.78-.12.21a5.72,5.72,0,0,1-5,2.53c-3.26,0-5.58-1.72-6.25-4.62h15.1l0-.21a10.33,10.33,0,0,0,.11-1.45C558.4,25.13,554.41,20.91,549.12,20.91Zm-6,8.23a5.74,5.74,0,0,1,6-4.76,5.44,5.44,0,0,1,5.54,4.76Z"/>
      <path class="cls-1" d="M569.18,20.91A9.79,9.79,0,1,0,579,30.69,9.67,9.67,0,0,0,569.18,20.91Zm6.17,9.78a6.15,6.15,0,1,1-6.17-6.2A6.05,6.05,0,0,1,575.35,30.69Z"/>
    </g>
  </g>
</svg>
